<svg width="90" height="103" viewBox="0 0 90 103" fill="none" xmlns="http://www.w3.org/2000/svg">
<path d="M41.4964 76.9635C40.184 76.9776 38.7697 76.9826 37.2395 76.9826C29.0242 76.9826 21.1716 76.861 17.426 76.6177C34.0982 52.0517 50.4078 28.458 67.2009 4.74267L66.235 2.79714H17.426C13.8013 2.79714 12.3521 2.9188 11.0226 0H7.88138C7.63967 5.35096 6.19039 15.9322 5.58611 22.2554L9.2108 22.3771C10.7809 17.7561 12.5938 13.7424 13.8013 12.1618C16.3383 8.39141 18.1512 7.66247 28.9034 7.66247H52.7041C35.6683 32.3501 18.8753 56.5521 2.08228 79.9024L3.16998 81.848H39.0164C39.6167 80.1096 40.4736 78.4365 41.4964 76.9635Z" fill="white"/>
<path d="M70.4992 7.66245C53.4645 32.3501 36.6715 56.552 19.8784 79.9014L20.9661 81.8469H83.7894C84.997 76.6176 87.8975 65.1858 88.7425 61.0504L85.2397 60.1998C83.0653 65.3074 80.4075 70.0501 77.8705 72.6049C74.4875 76.3753 70.8628 76.9826 55.0366 76.9826C46.8214 76.9826 38.9687 76.861 35.2232 76.6176C51.8954 52.0517 68.205 28.458 84.998 4.74265L84.0321 2.79712H73.6884" fill="white"/>
<path d="M0 102.17V100.452L8.87045 89.5467L9.1651 90.5149H0.137836V88.3422H11.4614V90.0605L2.59092 100.965L2.27729 99.9972H11.7171V102.17H0Z" fill="white"/>
<path d="M18.5457 102.309C17.3811 102.309 16.3643 102.075 15.4943 101.608C14.6244 101.14 13.9502 100.499 13.4727 99.6814C12.9953 98.865 12.7566 97.936 12.7566 96.8964C12.7566 95.8567 12.9883 94.9106 13.4538 94.1012C13.9182 93.2908 14.5594 92.6564 15.3775 92.1949C16.1945 91.7344 17.1274 91.5032 18.1742 91.5032C19.2209 91.5032 20.1039 91.7274 20.9019 92.1748C21.7 92.6232 22.3282 93.2547 22.7857 94.0711C23.2431 94.8875 23.4729 95.8487 23.4729 96.9557C23.4729 97.0613 23.4699 97.1799 23.4629 97.3116C23.4559 97.4433 23.4459 97.568 23.4339 97.6866H14.7003V96.0468H22.1384L21.1766 96.5605C21.1896 95.9553 21.0657 95.4214 20.804 94.9599C20.5423 94.4994 20.1858 94.1374 19.7343 93.873C19.2828 93.6096 18.7625 93.4779 18.1742 93.4779C17.5859 93.4779 17.0455 93.6096 16.594 93.873C16.1426 94.1364 15.789 94.5024 15.5343 94.9699C15.2796 95.4375 15.1517 95.9874 15.1517 96.6199V97.015C15.1517 97.6474 15.2956 98.2075 15.5832 98.6941C15.8709 99.1817 16.2764 99.5568 16.7998 99.8202C17.3232 100.084 17.9244 100.215 18.6056 100.215C19.1939 100.215 19.7243 100.123 20.1957 99.9388C20.6672 99.7548 21.0857 99.4653 21.4513 99.0701L22.7657 100.591C22.2943 101.144 21.703 101.57 20.9898 101.865C20.2767 102.162 19.4616 102.31 18.5467 102.31L18.5457 102.309Z" fill="white"/>
<path d="M29.0641 102.309C28.1872 102.309 27.3472 102.193 26.5421 101.963C25.7371 101.733 25.0999 101.453 24.6284 101.123L25.5703 99.2461C26.0417 99.5497 26.6041 99.7991 27.2583 99.9971C27.9125 100.194 28.5667 100.294 29.221 100.294C29.993 100.294 30.5524 100.188 30.899 99.978C31.2455 99.7679 31.4193 99.4844 31.4193 99.1284C31.4193 98.8389 31.3015 98.6187 31.0658 98.4669C30.83 98.316 30.5224 98.2004 30.1439 98.121C29.7643 98.0416 29.3418 97.9702 28.8784 97.9038C28.4139 97.8385 27.9495 97.749 27.485 97.6374C27.0206 97.5258 26.5981 97.3609 26.2195 97.1437C25.84 96.9265 25.5323 96.6329 25.2976 96.2649C25.0619 95.8959 24.944 95.4093 24.944 94.803C24.944 94.1314 25.1338 93.5482 25.5134 93.0546C25.8929 92.5609 26.4263 92.1788 27.1125 91.9084C27.7996 91.6389 28.6137 91.5032 29.5556 91.5032C30.2617 91.5032 30.9749 91.5826 31.695 91.7405C32.4142 91.8983 33.0095 92.1225 33.4809 92.4121L32.539 94.2893C32.0416 93.9866 31.5412 93.7795 31.0378 93.6669C30.5344 93.5553 30.034 93.499 29.5366 93.499C28.7905 93.499 28.2381 93.6106 27.8786 93.8348C27.519 94.059 27.3392 94.3415 27.3392 94.6844C27.3392 95.0001 27.4571 95.2374 27.6928 95.3952C27.9285 95.5531 28.2351 95.6788 28.6147 95.7703C28.9942 95.8628 29.4157 95.9382 29.8802 95.9975C30.3446 96.0568 30.8061 96.1453 31.2635 96.2639C31.721 96.3826 32.1435 96.5445 32.529 96.7476C32.9146 96.9517 33.2262 97.2382 33.4609 97.6072C33.6966 97.9762 33.8145 98.4568 33.8145 99.049C33.8145 99.7076 33.6217 100.281 33.2352 100.767C32.8486 101.255 32.3033 101.633 31.5961 101.903C30.89 102.173 30.046 102.309 29.0641 102.309Z" fill="white"/>
<path d="M34.5398 93.676V91.7004H41.5265V93.676H34.5398ZM39.8774 102.309C38.7258 102.309 37.8369 102.009 37.2086 101.41C36.5804 100.811 36.2667 99.9249 36.2667 98.7525V89.2893H38.7198V98.6932C38.7198 99.1939 38.8477 99.582 39.1024 99.8585C39.3571 100.135 39.7136 100.274 40.1721 100.274C40.7214 100.274 41.1789 100.129 41.5455 99.8394L42.2326 101.598C41.945 101.835 41.5914 102.013 41.1729 102.132C40.7544 102.25 40.3219 102.31 39.8774 102.31V102.309Z" fill="white"/>
<path d="M44.49 102.17V88.3412H47.041V99.9973H54.2234V102.17H44.489H44.49Z" fill="white"/>
<path d="M60.8375 102.309C59.6728 102.309 58.656 102.075 57.7861 101.608C56.9161 101.14 56.2419 100.499 55.7645 99.6814C55.2871 98.865 55.0483 97.936 55.0483 96.8964C55.0483 95.8567 55.2801 94.9106 55.7445 94.1012C56.209 93.2908 56.8502 92.6564 57.6682 92.1949C58.4853 91.7344 59.4181 91.5032 60.4649 91.5032C61.5117 91.5032 62.3946 91.7274 63.1927 92.1748C63.9907 92.6232 64.619 93.2547 65.0764 94.0711C65.5339 94.8875 65.7636 95.8487 65.7636 96.9557C65.7636 97.0613 65.7606 97.1799 65.7536 97.3116C65.7466 97.4433 65.7366 97.568 65.7246 97.6866H56.991V96.0468H64.4292L63.4673 96.5605C63.4803 95.9553 63.3565 95.4214 63.0948 94.9599C62.8331 94.4994 62.4765 94.1374 62.025 93.873C61.5736 93.6096 61.0532 93.4779 60.4649 93.4779C59.8766 93.4779 59.3362 93.6096 58.8848 93.873C58.4333 94.1364 58.0797 94.5024 57.825 94.9699C57.5703 95.4375 57.4425 95.9874 57.4425 96.6199V97.015C57.4425 97.6474 57.5863 98.2075 57.874 98.6941C58.1616 99.1817 58.5672 99.5568 59.0905 99.8202C59.6139 100.084 60.2152 100.215 60.8964 100.215C61.4847 100.215 62.0151 100.123 62.4865 99.9388C62.9579 99.7548 63.3764 99.4653 63.743 99.0701L65.0574 100.591C64.587 101.144 63.9947 101.57 63.2816 101.865C62.5684 102.162 61.7544 102.31 60.8385 102.31L60.8375 102.309Z" fill="white"/>
<path d="M70.9832 102.309C70.1982 102.309 69.511 102.174 68.9227 101.904C68.3344 101.634 67.8789 101.258 67.5583 100.778C67.2377 100.297 67.0779 99.754 67.0779 99.1477C67.0779 98.5414 67.2187 98.0216 67.4994 97.5471C67.78 97.0725 68.2415 96.6975 68.8827 96.421C69.524 96.1445 70.374 96.0057 71.4337 96.0057H74.4761V97.6456H71.6105C70.7735 97.6456 70.2102 97.7803 69.9225 98.0508C69.6348 98.3213 69.491 98.653 69.491 99.0482C69.491 99.4966 69.6678 99.8515 70.0214 100.115C70.375 100.378 70.8654 100.51 71.4936 100.51C72.1219 100.51 72.6353 100.371 73.1127 100.095C73.5901 99.8184 73.9337 99.4102 74.1435 98.8702L74.556 100.352C74.3203 100.972 73.8988 101.452 73.2905 101.794C72.6822 102.137 71.9131 102.308 70.9842 102.308L70.9832 102.309ZM74.2803 102.17V100.037L74.1425 99.5821V95.8479C74.1425 95.124 73.9267 94.5609 73.4953 94.1587C73.0638 93.7565 72.4095 93.5565 71.5326 93.5565C70.9443 93.5565 70.365 93.649 69.7956 93.833C69.2263 94.018 68.7459 94.2744 68.3534 94.6031L67.3915 92.8054C67.9538 92.3711 68.624 92.0453 69.4031 91.8271C70.1812 91.6099 70.9892 91.5013 71.8272 91.5013C73.3444 91.5013 74.519 91.8663 75.35 92.5983C76.1811 93.3292 76.5966 94.4583 76.5966 95.9866V102.17H74.2803Z" fill="white"/>
<path d="M84.1908 102.309C83.183 102.309 82.2771 102.082 81.473 101.627C80.668 101.173 80.0367 100.544 79.5793 99.7409C79.1208 98.9375 78.8921 97.9894 78.8921 96.8965C78.8921 95.8036 79.1208 94.8554 79.5793 94.0521C80.0367 93.2487 80.668 92.6234 81.473 92.1749C82.2781 91.7275 83.183 91.5033 84.1908 91.5033C85.0667 91.5033 85.8518 91.6973 86.546 92.0864C87.2392 92.4756 87.7885 93.0647 88.194 93.854C88.5995 94.6443 88.8023 95.6588 88.8023 96.8965C88.8023 98.1342 88.6065 99.1326 88.214 99.9289C87.8215 100.726 87.2781 101.321 86.5849 101.717C85.8918 102.112 85.0937 102.309 84.1908 102.309ZM84.4854 100.195C85.0737 100.195 85.6011 100.064 86.0656 99.8002C86.53 99.5368 86.9026 99.1547 87.1842 98.654C87.4659 98.1533 87.6057 97.5671 87.6057 96.8955C87.6057 96.2238 87.4649 95.6216 87.1842 95.1269C86.9026 94.6332 86.53 94.2542 86.0656 93.9908C85.6011 93.7273 85.0747 93.5956 84.4854 93.5956C83.8961 93.5956 83.3698 93.7273 82.9053 93.9908C82.4409 94.2542 82.0683 94.6332 81.7867 95.1269C81.505 95.6206 81.3652 96.2108 81.3652 96.8955C81.3652 97.5802 81.506 98.1533 81.7867 98.654C82.0673 99.1547 82.4409 99.5368 82.9053 99.8002C83.3698 100.064 83.8961 100.195 84.4854 100.195ZM87.6647 102.171V99.6816L87.7625 96.8764L87.5668 94.0712V87.5127H89.9999V102.171H87.6647Z" fill="white"/>
</svg>
